HIERARCHY
ROOT Hips
{
  OFFSET 126.96 91.9987 35.2002
  CHANNELS 6 Xposition Yposition Zposition Zrotation Xrotation Yrotation
  JOINT RightUpLeg
  {
    OFFSET -9.21262 -1.62705 0.0892923
    CHANNELS 3 Zrotation Xrotation Yrotation
    JOINT RightLeg
    {
      OFFSET 0.0960154 -41.8606 0.153467
      CHANNELS 3 Zrotation Xrotation Yrotation
      JOINT RightFoot
      {
        OFFSET 1.33859 -39.7491 3.70458
        CHANNELS 3 Zrotation Xrotation Yrotation
        End Site
        {
          OFFSET 0 -7.69 17.5
        }
      }
    }
  }
  JOINT LeftUpLeg
  {
    OFFSET 9.28909 -1.62806 0.0108209
    CHANNELS 3 Zrotation Xrotation Yrotation
    JOINT LeftLeg
    {
      OFFSET 0.0929201 -41.8886 0.0218006
      CHANNELS 3 Zrotation Xrotation Yrotation
      JOINT LeftFoot
      {
        OFFSET -1.57781 -41.3397 -3.31563
        CHANNELS 3 Zrotation Xrotation Yrotation
        End Site
        {
          OFFSET 0 -7.69 17.5
        }
      }
    }
  }
  JOINT Spine
  {
    OFFSET 0.0128959 14.3037 0.0259321
    CHANNELS 3 Zrotation Xrotation Yrotation
    JOINT Spine1
    {
      OFFSET 0.0143034 9.71252 0.015398
      CHANNELS 3 Zrotation Xrotation Yrotation
      JOINT Spine2
      {
        OFFSET 0.0468817 10.117 -0.0314137
        CHANNELS 3 Zrotation Xrotation Yrotation
        JOINT Spine3
        {
          OFFSET 0.0102655 9.71178 0.00221616
          CHANNELS 3 Zrotation Xrotation Yrotation
          JOINT Neck
          {
            OFFSET -0.0402596 10.3794 0.0231037
            CHANNELS 3 Zrotation Xrotation Yrotation
            JOINT Head
            {
              OFFSET -0.03453 9.49168 0.0708427
              CHANNELS 3 Zrotation Xrotation Yrotation
              End Site
              {
                OFFSET 0 15.95 0
              }
            }
          }
          JOINT RightShoulder
          {
            OFFSET -3.17991 6.93495 0.0309862
            CHANNELS 3 Zrotation Xrotation Yrotation
            JOINT RightArm
            {
              OFFSET -12.8253 0.0342167 0.035901
              CHANNELS 3 Zrotation Xrotation Yrotation
              JOINT RightForeArm
              {
                OFFSET -26.4423 -0.000685918 0.00421057
                CHANNELS 3 Zrotation Xrotation Yrotation
                JOINT RightHand
                {
                  OFFSET -25.9842 -0.0662606 -0.0268032
                  CHANNELS 3 Zrotation Xrotation Yrotation
                  JOINT RightHandThumb1
                  {
                    OFFSET -2.48905 0.190105 3.12053
                    CHANNELS 3 Zrotation Xrotation Yrotation
                    JOINT RightHandThumb2
                    {
                      OFFSET -3.68274 0 0
                      CHANNELS 3 Zrotation Xrotation Yrotation
                      JOINT RightHandThumb3
                      {
                        OFFSET -2.55832 0 0
                        CHANNELS 3 Zrotation Xrotation Yrotation
                        End Site
                        {
                          OFFSET -2.194 0 0
                        }
                      }
                    }
                  }
                  JOINT RightInHandIndex
                  {
                    OFFSET -3.22368 0.508421 1.97842
                    CHANNELS 3 Zrotation Xrotation Yrotation
                    JOINT RightHandIndex1
                    {
                      OFFSET -5.21684 -0.091368 0.999158
                      CHANNELS 3 Zrotation Xrotation Yrotation
                      JOINT RightHandIndex2
                      {
                        OFFSET -3.61937 0 0
                        CHANNELS 3 Zrotation Xrotation Yrotation
                        JOINT RightHandIndex3
                        {
                          OFFSET -2.0521 0 0
                          CHANNELS 3 Zrotation Xrotation Yrotation
                          End Site
                          {
                            OFFSET -1.805 0 0
                          }
                        }
                      }
                    }
                  }
                  JOINT RightInHandMiddle
                  {
                    OFFSET -3.38211 0.517263 0.756737
                    CHANNELS 3 Zrotation Xrotation Yrotation
                    JOINT RightHandMiddle1
                    {
                      OFFSET -5.17411 -0.084 0.313895
                      CHANNELS 3 Zrotation Xrotation Yrotation
                      JOINT RightHandMiddle2
                      {
                        OFFSET -3.94947 0 0
                        CHANNELS 3 Zrotation Xrotation Yrotation
                        JOINT RightHandMiddle3
                        {
                          OFFSET -2.47579 0 0
                          CHANNELS 3 Zrotation Xrotation Yrotation
                          End Site
                          {
                            OFFSET -1.975 0 0
                          }
                        }
                      }
                    }
                  }
                  JOINT RightInHandRing
                  {
                    OFFSET -3.36516 0.537895 -0.128947
                    CHANNELS 3 Zrotation Xrotation Yrotation
                    JOINT RightHandRing1
                    {
                      OFFSET -4.63474 -0.022105 -0.478947
                      CHANNELS 3 Zrotation Xrotation Yrotation
                      JOINT RightHandRing2
                      {
                        OFFSET -3.44238 0 0
                        CHANNELS 3 Zrotation Xrotation Yrotation
                        JOINT RightHandRing3
                        {
                          OFFSET -2.3881 0 0
                          CHANNELS 3 Zrotation Xrotation Yrotation
                          End Site
                          {
                            OFFSET -1.857 0 0
                          }
                        }
                      }
                    }
                  }
                  JOINT RightInHandPinky
                  {
                    OFFSET -3.16105 0.469368 -1.20179
                    CHANNELS 3 Zrotation Xrotation Yrotation
                    JOINT RightHandPinky1
                    {
                      OFFSET -4.14105 -0.022105 -1.09053
                      CHANNELS 3 Zrotation Xrotation Yrotation
                      JOINT RightHandPinky2
                      {
                        OFFSET -2.75653 0 0
                        CHANNELS 3 Zrotation Xrotation Yrotation
                        JOINT RightHandPinky3
                        {
                          OFFSET -1.74189 0 0
                          CHANNELS 3 Zrotation Xrotation Yrotation
                          End Site
                          {
                            OFFSET -1.645 0 0
                          }
                        }
                      }
                    }
                  }
                }
              }
            }
          }
          JOINT LeftShoulder
          {
            OFFSET 3.21113 6.90952 -0.0469957
            CHANNELS 3 Zrotation Xrotation Yrotation
            JOINT LeftArm
            {
              OFFSET 12.7919 -0.0331125 -0.0859637
              CHANNELS 3 Zrotation Xrotation Yrotation
              JOINT LeftForeArm
              {
                OFFSET 26.4755 -0.0026531 -0.0242133
                CHANNELS 3 Zrotation Xrotation Yrotation
                JOINT LeftHand
                {
                  OFFSET 25.9936 -0.03295 -0.105102
                  CHANNELS 3 Zrotation Xrotation Yrotation
                  JOINT LeftHandThumb1
                  {
                    OFFSET 2.48905 0.190105 3.12053
                    CHANNELS 3 Zrotation Xrotation Yrotation
                    JOINT LeftHandThumb2
                    {
                      OFFSET 3.68274 0 0
                      CHANNELS 3 Zrotation Xrotation Yrotation
                      JOINT LeftHandThumb3
                      {
                        OFFSET 2.55832 0 0
                        CHANNELS 3 Zrotation Xrotation Yrotation
                        End Site
                        {
                          OFFSET 2.194 0 0
                        }
                      }
                    }
                  }
                  JOINT LeftInHandIndex
                  {
                    OFFSET 3.22368 0.508421 1.97842
                    CHANNELS 3 Zrotation Xrotation Yrotation
                    JOINT LeftHandIndex1
                    {
                      OFFSET 5.21684 -0.091368 0.999158
                      CHANNELS 3 Zrotation Xrotation Yrotation
                      JOINT LeftHandIndex2
                      {
                        OFFSET 3.61937 0 0
                        CHANNELS 3 Zrotation Xrotation Yrotation
                        JOINT LeftHandIndex3
                        {
                          OFFSET 2.0521 0 0
                          CHANNELS 3 Zrotation Xrotation Yrotation
                          End Site
                          {
                            OFFSET 1.805 0 0
                          }
                        }
                      }
                    }
                  }
                  JOINT LeftInHandMiddle
                  {
                    OFFSET 3.38211 0.517263 0.756737
                    CHANNELS 3 Zrotation Xrotation Yrotation
                    JOINT LeftHandMiddle1
                    {
                      OFFSET 5.17411 -0.084 0.313895
                      CHANNELS 3 Zrotation Xrotation Yrotation
                      JOINT LeftHandMiddle2
                      {
                        OFFSET 3.94947 0 0
                        CHANNELS 3 Zrotation Xrotation Yrotation
                        JOINT LeftHandMiddle3
                        {
                          OFFSET 2.47579 0 0
                          CHANNELS 3 Zrotation Xrotation Yrotation
                          End Site
                          {
                            OFFSET 1.975 0 0
                          }
                        }
                      }
                    }
                  }
                  JOINT LeftInHandRing
                  {
                    OFFSET 3.36516 0.537895 -0.128947
                    CHANNELS 3 Zrotation Xrotation Yrotation
                    JOINT LeftHandRing1
                    {
                      OFFSET 4.63474 -0.022105 -0.478947
                      CHANNELS 3 Zrotation Xrotation Yrotation
                      JOINT LeftHandRing2
                      {
                        OFFSET 3.44238 0 0
                        CHANNELS 3 Zrotation Xrotation Yrotation
                        JOINT LeftHandRing3
                        {
                          OFFSET 2.3881 0 0
                          CHANNELS 3 Zrotation Xrotation Yrotation
                          End Site
                          {
                            OFFSET 1.857 0 0
                          }
                        }
                      }
                    }
                  }
                  JOINT LeftInHandPinky
                  {
                    OFFSET 3.16105 0.469368 -1.20179
                    CHANNELS 3 Zrotation Xrotation Yrotation
                    JOINT LeftHandPinky1
                    {
                      OFFSET 4.14105 -0.022105 -1.09053
                      CHANNELS 3 Zrotation Xrotation Yrotation
                      JOINT LeftHandPinky2
                      {
                        OFFSET 2.75653 0 0
                        CHANNELS 3 Zrotation Xrotation Yrotation
                        JOINT LeftHandPinky3
                        {
                          OFFSET 1.74189 0 0
                          CHANNELS 3 Zrotation Xrotation Yrotation
                          End Site
                          {
                            OFFSET 1.645 0 0
                          }
                        }
                      }
                    }
                  }
                }
              }
            }
          }
        }
      }
    }
  }
}
MOTION
Frames: 3
Frame Time: 0.00833333
3.000331955942829723e+02 1.229578346235122438e-02 3.128892913599081588e-02 2.419380523531293459e-01 3.504982399720475705e-02 4.994107519984263277e-01 -6.585474846069511168e-01 -1.819379336737692310e-01 -7.262950332723054903e-01 8.606944508282794726e-02 -3.428757431230466252e-02 -1.312894016503224071e-01 -4.064349468039017352e-03 -5.975773883490272109e-02 -7.599205697397494463e-02 -4.398290913434334953e-02 -3.629393428738623695e-01 -2.128252057375963069e-01 6.826096878672396374e-03 -1.748269438844755330e-01 -5.853120752011217731e-02 9.222917730408461412e-02 1.578354214735242234e-01 -8.850511804282349196e-03 -8.069761310045268921e-03 4.844196756206264887e-02 1.056978649326381081e-01 -5.062976634381172875e-03 2.335781464922851228e-02 3.345676865680907025e-02 -7.371119398264534828e-03 4.216125084034452741e-02 4.640068412229660100e-02 1.718903376684308149e-02 -5.406151091691572402e-03 -2.175889592595531968e-02 1.929021100444437350e-02 -2.426525993766513647e-03 -4.179535894962871367e-02 2.837243636193025886e-01 -9.927150698507493376e-02 -3.905516533178200467e-01 9.401651604546073376e-03 -2.002504948831206055e-01 1.121652652599724603e-01 -6.547720250630022221e-02 -3.121309237022853456e-01 2.702504938227706099e-01 3.870058327832000544e-01 1.167052861867878821e+00 2.353487154738845843e-01 1.778867161283377019e-01 6.131622381337190619e-01 -1.340758444275327976e+00 0.000000000000000000e+00 0.000000000000000000e+00 0.000000000000000000e+00 6.134881027874108035e-15 -8.896901954559681817e-15 0.000000000000000000e+00 4.177249353593402535e-15 -6.406695146726270473e-15 0.000000000000000000e+00 1.216173294223058781e-15 2.050368615529715442e-15 1.601606941706590488e-15 0.000000000000000000e+00 0.000000000000000000e+00 0.000000000000000000e+00 0.000000000000000000e+00 -4.185653897839879314e-15 6.321364278388018602e-15 0.000000000000000000e+00 -1.891912934282478029e-15 -7.401597890545476603e-15 1.216173294223058781e-15 2.050368615529715442e-15 1.601606941706590488e-15 0.000000000000000000e+00 -8.087323568800906166e-16 5.885014896121400150e-15 0.000000000000000000e+00 9.216677269139300106e-15 2.509743618228358600e-15 0.000000000000000000e+00 -3.318758706349865205e-16 4.032165662186196452e-15 1.216173294223058781e-15 2.050368615529715442e-15 1.601606941706590488e-15 0.000000000000000000e+00 0.000000000000000000e+00 0.000000000000000000e+00 0.000000000000000000e+00 3.320331743334750659e-15 1.778926484301653368e-14 0.000000000000000000e+00 -4.208697236421860684e-15 -4.266650846771054130e-15 1.216173294223058781e-15 2.050368615529715442e-15 1.601606941706590488e-15 0.000000000000000000e+00 0.000000000000000000e+00 0.000000000000000000e+00 0.000000000000000000e+00 7.372779623069671500e-15 -3.257448084120200056e-15 0.000000000000000000e+00 2.753891394854663434e-15 -6.455191314368591037e-16 -6.779605774772107241e-02 -8.774034762633530979e-03 1.598839466525655284e-01 1.766802256187390285e-01 -1.666279543956997455e-01 -7.248929843246848526e-02 -1.296915553981423885e+00 -4.277635017352751645e-02 -1.062957178917601553e+00 -3.590434803072315995e-01 -3.205211810519726923e-01 1.462247805382191068e-01 0.000000000000000000e+00 0.000000000000000000e+00 0.000000000000000000e+00 -1.384214911986748761e-14 2.050277307289051445e-14 0.000000000000000000e+00 5.168413056310254720e-15 1.079799194735519611e-14 0.000000000000000000e+00 1.770816615603323845e-15 2.420314081918267672e-15 1.229429400023365716e-15 0.000000000000000000e+00 0.000000000000000000e+00 0.000000000000000000e+00 0.000000000000000000e+00 -1.277886305580038990e-15 -2.747783534815528670e-14 0.000000000000000000e+00 5.552246908241624318e-15 -9.961706927885300248e-15 1.770816615603323845e-15 2.420314081918267672e-15 1.229429400023365716e-15 0.000000000000000000e+00 4.938578240456011494e-15 -1.477115329721677923e-15 0.000000000000000000e+00 2.569104801218965028e-15 -1.239949610514621176e-14 0.000000000000000000e+00 2.293722206283741872e-15 -2.557079308520936384e-14 1.770816615603323845e-15 2.420314081918267672e-15 1.229429400023365716e-15 0.000000000000000000e+00 0.000000000000000000e+00 0.000000000000000000e+00 0.000000000000000000e+00 5.960031520635194409e-15 -2.662174248231513293e-14 0.000000000000000000e+00 3.607782371525356426e-15 -3.911480178490278331e-14 1.770816615603323845e-15 2.420314081918267672e-15 1.229429400023365716e-15 0.000000000000000000e+00 0.000000000000000000e+00 0.000000000000000000e+00 0.000000000000000000e+00 -2.985977843698502816e-16 -1.972197380125673567e-14 0.000000000000000000e+00 1.043375001074234295e-14 -1.154485245062167070e-14
3.000215148982429696e+02 9.228944145493333737e-03 1.872171302481507454e-02 1.559149436415426804e-01 7.179532332177712174e-03 3.131424509845930348e-01 -4.015937625498086083e-01 -1.187839823827013253e-01 -4.537841702095858354e-01 3.670979890752057440e-02 -3.478459423180440407e-02 -5.797467124363925306e-02 3.732381576570873404e-03 -4.558587263832107606e-02 -5.167142487304991760e-02 -1.243437279184676086e-02 -2.448087765135283089e-01 -1.673585940207855671e-01 -2.144286078970086135e-02 -1.053410341567333902e-01 -5.503004800583653766e-03 6.758891826711579953e-02 9.675508370629851140e-02 2.468323190585520327e-02 -2.866452407495889698e-02 2.352297168742730274e-02 9.961364869380222309e-02 -8.549766422845328506e-03 1.548194561135138141e-02 2.877191432415077479e-02 -1.334852656395026961e-02 2.954949643745330770e-02 4.193081955590133997e-02 1.310808236281124813e-02 -4.864545021260976120e-03 -1.715330348572869160e-02 1.227925983038069199e-02 -3.192575990245486751e-03 -2.100261858416322888e-02 2.233790708846669359e-01 -7.882978128208954771e-02 -3.086830216632797108e-01 -4.358348498494321599e-02 -1.745245186205225674e-01 2.018754076306435857e-02 5.162634058335093673e-02 -1.276564064689776345e-01 1.073752670354088390e-01 4.809373095412723953e-01 9.585476587634319534e-01 6.133584375787364262e-01 1.434971250483712824e-01 3.876102992161325478e-01 -1.084923121173430927e+00 0.000000000000000000e+00 0.000000000000000000e+00 0.000000000000000000e+00 6.651462427328714009e-15 -4.004928953188090206e-15 0.000000000000000000e+00 3.541744375135393618e-15 -4.218393501746257664e-15 0.000000000000000000e+00 -5.096443200975667561e-16 1.830122553896234282e-15 1.453558355295812384e-15 0.000000000000000000e+00 0.000000000000000000e+00 0.000000000000000000e+00 0.000000000000000000e+00 1.480276596854855832e-16 -2.567842146018186260e-15 0.000000000000000000e+00 -1.262028009819612047e-15 -4.003454004388339806e-16 -5.096443200975667561e-16 1.830122553896234282e-15 1.453558355295812384e-15 0.000000000000000000e+00 -1.741610749052496777e-15 1.913018695153505933e-15 0.000000000000000000e+00 4.704200740967760423e-15 8.342818923065391544e-15 0.000000000000000000e+00 7.903538325156742858e-16 3.853794158710480526e-15 -5.096443200975667561e-16 1.830122553896234282e-15 1.453558355295812384e-15 0.000000000000000000e+00 0.000000000000000000e+00 0.000000000000000000e+00 0.000000000000000000e+00 1.810716728770425151e-15 1.466422480362684856e-14 0.000000000000000000e+00 -1.835549115027762953e-15 -2.339356199480829051e-15 -5.096443200975667561e-16 1.830122553896234282e-15 1.453558355295812384e-15 0.000000000000000000e+00 0.000000000000000000e+00 0.000000000000000000e+00 0.000000000000000000e+00 3.450265949441891849e-15 -2.197807969438830465e-15 0.000000000000000000e+00 6.370618319492567663e-16 2.177989388408656759e-15 -6.108373211870326419e-02 -8.099477938432521687e-03 1.419159262659290821e-01 2.423079644787460296e-01 -1.519489107446226894e-01 -1.758873569704304252e-01 -1.867020872398973630e+00 -1.090409289656195380e-01 -1.688228893894409444e+00 -4.025630707760033400e-01 -3.229028744027057085e-01 1.644121104398498789e-01 0.000000000000000000e+00 0.000000000000000000e+00 0.000000000000000000e+00 1.510219032987760874e-17 1.227213575622728834e-14 0.000000000000000000e+00 5.541250154361070624e-15 4.123675217417256832e-15 0.000000000000000000e+00 6.470957316973007810e-16 3.528037466905964562e-15 2.482431270741896227e-15 0.000000000000000000e+00 0.000000000000000000e+00 0.000000000000000000e+00 0.000000000000000000e+00 -3.826792411378129122e-16 -1.132592437085078890e-14 0.000000000000000000e+00 1.857488605266455116e-15 -3.238604080192111556e-15 6.470957316973007810e-16 3.528037466905964562e-15 2.482431270741896227e-15 0.000000000000000000e+00 4.066044295085944932e-15 -1.646281574120878925e-15 0.000000000000000000e+00 2.907358555404713094e-15 -8.116924471164861347e-15 0.000000000000000000e+00 1.746087031921916498e-15 -9.025864563810356207e-15 6.470957316973007810e-16 3.528037466905964562e-15 2.482431270741896227e-15 0.000000000000000000e+00 0.000000000000000000e+00 0.000000000000000000e+00 0.000000000000000000e+00 2.118979986846454745e-15 -1.926027772310170511e-14 0.000000000000000000e+00 5.400516771428312572e-16 -2.186888230888215261e-14 6.470957316973007810e-16 3.528037466905964562e-15 2.482431270741896227e-15 0.000000000000000000e+00 0.000000000000000000e+00 0.000000000000000000e+00 0.000000000000000000e+00 1.530220848975548240e-15 -1.231568290935954676e-14 0.000000000000000000e+00 3.481483266204986735e-15 -5.278598609611904573e-15
3.000140187178914744e+02 5.393652022055652091e-03 5.131124011401780489e-03 6.670147647562617299e-02 -2.198762921741421322e-02 1.282606080519009262e-01 -1.335191187402806900e-01 -5.791733773599027496e-02 -1.550471499873019576e-01 -1.238676857005433646e-02 -3.176432983756577455e-02 3.007927403326339857e-03 1.141519223951031545e-02 -3.112718883872218900e-02 -3.190416667315747884e-02 1.846872473584699331e-02 -1.275241545879760019e-01 -9.762906079881629451e-02 -4.068939822757192126e-02 -3.548851302141020625e-02 2.728090340417910556e-02 4.183011479209911010e-02 3.825493481744372121e-02 5.288132525692804120e-02 -5.986599421120005621e-02 6.755005320283839071e-05 1.181739289550798877e-01 -1.339313293394117990e-02 9.212209568038439919e-03 2.925479117692594486e-02 -2.191198624197494838e-02 2.088253192449478213e-02 4.728513413362796236e-02 9.621853144478980518e-03 -4.363103963564459245e-03 -1.480607446700261259e-02 6.866004502719106131e-03 -3.716256740013685559e-03 -6.972714006912033094e-03 1.692012990304567199e-01 -5.897655943497088354e-02 -2.580576448461841532e-01 -9.194289715181301614e-02 -1.540647333978679145e-01 -7.028622650455323972e-02 1.061566451408491457e-01 3.774531624002687435e-02 2.136900703731108714e-02 4.903606400075241067e-01 5.538783396411507409e-01 8.836327435505950678e-01 7.072372775589311211e-02 2.459518879533878211e-01 -8.609360330944295647e-01 0.000000000000000000e+00 0.000000000000000000e+00 0.000000000000000000e+00 1.055660548056893141e-14 2.194481521597322871e-15 0.000000000000000000e+00 1.496676123147940769e-15 -3.462412714527405555e-16 0.000000000000000000e+00 -3.148367984545263387e-15 -2.533705481493383934e-16 1.246008501614621943e-15 0.000000000000000000e+00 0.000000000000000000e+00 0.000000000000000000e+00 0.000000000000000000e+00 1.894370242727617147e-15 -4.947589303592441525e-15 0.000000000000000000e+00 -8.573592982365129047e-16 4.926743090291939572e-15 -3.148367984545263387e-15 -2.533705481493383934e-16 1.246008501614621943e-15 0.000000000000000000e+00 -1.609319989076725765e-15 8.974501364700773955e-18 0.000000000000000000e+00 7.181643678115931757e-16 9.083229727037308163e-15 0.000000000000000000e+00 6.884520643314467901e-16 3.396024419655739033e-15 -3.148367984545263387e-15 -2.533705481493383934e-16 1.246008501614621943e-15 0.000000000000000000e+00 0.000000000000000000e+00 0.000000000000000000e+00 0.000000000000000000e+00 1.215437638699352681e-15 5.128321425791943987e-15 0.000000000000000000e+00 7.246982384977753766e-16 1.592979398335620648e-15 -3.148367984545263387e-15 -2.533705481493383934e-16 1.246008501614621943e-15 0.000000000000000000e+00 0.000000000000000000e+00 0.000000000000000000e+00 0.000000000000000000e+00 3.128938878724997765e-15 -2.128920546542106901e-15 0.000000000000000000e+00 -4.476616056863723605e-16 3.555639970810232266e-15 -5.580219739821885849e-02 -4.542167851459671599e-03 1.244056597708599332e-01 2.897361327805165754e-01 -1.378420013711332270e-01 -2.541519775195189013e-01 -2.082966761237924125e+00 -1.942939507488051498e-01 -1.941726072585383323e+00 -3.774568503561470112e-01 -2.953293689223094320e-01 1.617946890920216041e-01 0.000000000000000000e+00 0.000000000000000000e+00 0.000000000000000000e+00 9.799942266564284387e-15 4.252060620739555323e-15 0.000000000000000000e+00 7.218647622634682123e-15 -2.357898112549106059e-15 0.000000000000000000e+00 7.938840360596382565e-16 3.586665537993102729e-15 2.745220715834744936e-15 0.000000000000000000e+00 0.000000000000000000e+00 0.000000000000000000e+00 0.000000000000000000e+00 3.232676456902373227e-16 1.220839833184060541e-14 0.000000000000000000e+00 -2.494896413688451522e-15 7.264137630037682478e-15 7.938840360596382565e-16 3.586665537993102729e-15 2.745220715834744936e-15 0.000000000000000000e+00 2.065662638564015630e-15 1.259739729772101520e-15 0.000000000000000000e+00 1.019590532033473548e-15 1.879356931793320645e-15 0.000000000000000000e+00 -2.769620475175260183e-17 6.282537675054037119e-15 7.938840360596382565e-16 3.586665537993102729e-15 2.745220715834744936e-15 0.000000000000000000e+00 0.000000000000000000e+00 0.000000000000000000e+00 0.000000000000000000e+00 -2.949840096425062048e-15 -2.638881433559610329e-15 0.000000000000000000e+00 -2.928441649057476891e-15 -3.987765962409541368e-15 7.938840360596382565e-16 3.586665537993102729e-15 2.745220715834744936e-15 0.000000000000000000e+00 0.000000000000000000e+00 0.000000000000000000e+00 0.000000000000000000e+00 -1.181182349908283055e-15 4.471294870173898113e-15 0.000000000000000000e+00 -2.673890027349326920e-15 5.607284850691056143e-15
